<?xml version="1.0" encoding="UTF-8" standalone="no"?><!DOCTYPE svg PUBLIC "-//W3C//DTD SVG 1.1//EN" "http://www.w3.org/Graphics/SVG/1.1/DTD/svg11.dtd"><svg width="100%" height="100%" viewBox="0 0 3680 2500" version="1.1" xmlns="http://www.w3.org/2000/svg" xmlns:xlink="http://www.w3.org/1999/xlink" xml:space="preserve" xmlns:serif="http://www.serif.com/" style="fill-rule:evenodd;clip-rule:evenodd;stroke-linejoin:round;stroke-miterlimit:2;"><rect id="Artboard1" x="0" y="0" width="3679.17" height="2500" style="fill:none;"/><g id="Artboard11" serif:id="Artboard1"><g><text x="1676.25px" y="1221.89px" style="font-family:'TwCenMT-Bold', 'Tw Cen MT', sans-serif;font-weight:700;font-size:444.336px;fill:#ea5f5f;">aso<tspan x="2323.01px 2554.51px 2789.04px " y="1221.89px 1221.89px 1221.89px ">va.</tspan>com</text><text x="1683.09px" y="1453.35px" style="font-family:'TwCenMT-Bold', 'Tw Cen MT', sans-serif;font-weight:700;font-size:222.008px;fill:#ff5c71;">Softwar<tspan x="2400.71px 2507.05px " y="1453.35px 1453.35px ">e </tspan>Engineering</text><path d="M901.609,1882.09c-235.26,-14.08 -438.824,-146.727 -551.637,-338.903c-154.608,32.375 -266.459,21.52 -302.407,-40.553c-45.592,-78.723 41.03,-222.34 212.106,-380.333c0.161,-1.518 0.328,-3.036 0.5,-4.552c1.521,-0.04 3.054,-0.088 4.609,-0.147c94.712,-86.773 214.618,-177.687 351.87,-264.439c-51.067,7.473 -109.397,21.04 -170.151,40.499c-53.842,17.245 -103.446,37.151 -145.982,57.872c98.601,-258.982 349.336,-443.199 642.759,-443.199c95.657,0 186.777,19.579 269.545,54.934c235.718,-78.176 415.427,-85.482 462.879,-3.545c37.814,65.294 -15.324,175.23 -132.13,300.95c55.542,99.2 87.206,213.512 87.206,335.161l0,624.556c0,16.694 -6.632,32.704 -18.436,44.508c-11.805,11.805 -27.815,18.436 -44.508,18.436l-666.223,0l0,-1.245Zm349.473,-282.088c54.369,0 98.444,-44.075 98.444,-98.443c0,-119.638 0,-305.724 0,-305.724c0,-48.856 -8.643,-95.71 -24.485,-139.117l-1.558,-4.196l-0.757,-1.988c-0.932,-2.431 -1.887,-4.85 -2.865,-7.258l-1.812,-4.388l-0.736,-1.744c-1.072,-2.522 -2.169,-5.03 -3.291,-7.524l-1.766,-3.875c-45.656,-98.783 -129.824,-176.177 -233.202,-212.876l-4.329,-1.509l-4.455,-1.496l-4.39,-1.418l-4.422,-1.373l-5.134,-1.523l-4.676,-1.324l-4.547,-1.229l-2.347,-0.613l-5.287,-1.322l-4.669,-1.107l-2.309,-0.525l-5.328,-1.157l-4.821,-0.984l-4.693,-0.899l-5.461,-0.972l-4.834,-0.798l-4.766,-0.728l-5.56,-0.774l-4.846,-0.613l-2.391,-0.28l-5.562,-0.596l-4.963,-0.467l-4.83,-0.397l-5.683,-0.391l-4.958,-0.277l-4.867,-0.215l-5.773,-0.177l-4.972,-0.09l-2.456,-0.022l-4.525,-0.002l-4.902,0.054l-4.81,0.109l-4.197,0.141l-4.812,0.215l-4.145,0.23l-4.806,0.321l-4.255,0.33l-4.639,0.413l-4.49,0.449l-4.347,0.483l-4.592,0.563l-4.186,0.558l-4.639,0.672l-4.079,0.635l-4.658,0.778l-3.999,0.712l-4.66,0.884l-3.933,0.788l-4.652,0.987l-4.394,0.985l-5.093,1.206l-4.557,1.138l-4.795,1.259l-5.387,1.491l-4.55,1.321l-5.282,1.608l-4.721,1.504l-4.619,1.534l-5.098,1.766l-4.624,1.667l-4.685,1.755l-4.908,1.911c-2.006,0.796 -4.005,1.608 -5.997,2.435l-1.761,0.736c-2.03,0.855 -4.052,1.726 -6.065,2.613l-0.151,0.066c-2.542,1.121 -5.07,2.267 -7.585,3.438l-0.083,0.038c-2.021,0.942 -4.034,1.9 -6.036,2.874l-1.529,0.747c-2.008,0.987 -4.007,1.99 -5.997,3.01l-0.044,0.022c-2.48,1.271 -4.946,2.567 -7.396,3.886l-0.07,0.038c-1.959,1.056 -3.908,2.127 -5.849,3.215l-1.535,0.864c-1.893,1.072 -3.779,2.159 -5.657,3.263l-1.651,0.975l-2.774,1.661c-91.022,55.046 -158.741,144.776 -184.782,250.799l-1.064,4.441l-0.985,4.324l-0.413,1.878c-6.05,27.867 -9.236,56.792 -9.236,86.454c0,83.341 25.15,160.854 68.264,225.35l0.003,-0.001c7.831,11.719 16.262,23.014 25.243,33.837c66.253,79.846 162.498,133.954 271.389,144.981l349.157,0Zm-984.197,-280.519c-97.096,87.283 -145.983,157.577 -125.988,193.43c18.008,32.292 89.151,31.728 194.656,4.458c-32.418,-61.105 -55.888,-127.648 -68.668,-197.888Zm1268.01,-473.857c73.843,-72.221 108.93,-129.813 91.465,-161.129c-19.459,-34.892 -100.956,-31.424 -220.795,2.644c50.556,45.975 94.242,99.378 129.33,158.485Z" style="fill:#ea5f5f;"/><circle cx="928.299" cy="1192.36" r="362.154" style="fill:#ea5f5f;"/></g></g></svg>